<?xml version="1.0" encoding="UTF-8" standalone="no"?>
<!-- Created with Inkscape (http://www.inkscape.org/) -->

<svg
   width="64.0px"
   height="64.0px"
   viewBox="0 0 64.0 64.0"
   version="1.1"
   id="SVGRoot"
   sodipodi:docname="boid.svg"
   inkscape:export-filename="boid.png"
   inkscape:export-xdpi="96"
   inkscape:export-ydpi="96"
   inkscape:version="1.2.2 (b0a8486541, 2022-12-01)"
   xmlns:inkscape="http://www.inkscape.org/namespaces/inkscape"
   xmlns:sodipodi="http://sodipodi.sourceforge.net/DTD/sodipodi-0.dtd"
   xmlns="http://www.w3.org/2000/svg"
   xmlns:svg="http://www.w3.org/2000/svg">
  <sodipodi:namedview
     id="namedview520"
     pagecolor="#ffffff"
     bordercolor="#000000"
     borderopacity="0.25"
     inkscape:showpageshadow="2"
     inkscape:pageopacity="0.0"
     inkscape:pagecheckerboard="0"
     inkscape:deskcolor="#d1d1d1"
     inkscape:document-units="px"
     showgrid="true"
     inkscape:zoom="11.492309"
     inkscape:cx="27.888216"
     inkscape:cy="32.238952"
     inkscape:window-width="1896"
     inkscape:window-height="504"
     inkscape:window-x="10"
     inkscape:window-y="562"
     inkscape:window-maximized="1"
     inkscape:current-layer="layer1"
     showguides="true">
    <inkscape:grid
       type="xygrid"
       id="grid526" />
    <sodipodi:guide
       position="28.678752,66.688633"
       orientation="0,-1"
       id="guide535"
       inkscape:locked="false" />
    <sodipodi:guide
       position="42.838886,32"
       orientation="0,1"
       id="guide537"
       inkscape:locked="false"
       inkscape:label=""
       inkscape:color="rgb(0,134,229)" />
    <sodipodi:guide
       position="32,48.473937"
       orientation="-1,0"
       id="guide541"
       inkscape:locked="false"
       inkscape:label=""
       inkscape:color="rgb(0,134,229)" />
  </sodipodi:namedview>
  <defs
     id="defs515">
    <inkscape:path-effect
       effect="simplify"
       id="path-effect1959"
       is_visible="true"
       lpeversion="1"
       steps="100"
       threshold="0.0004"
       smooth_angles="140"
       helper_size="5"
       simplify_individual_paths="false"
       simplify_just_coalesce="false" />
    <inkscape:path-effect
       effect="simplify"
       id="path-effect550"
       is_visible="true"
       lpeversion="1"
       steps="100"
       threshold="0.0004"
       smooth_angles="140"
       helper_size="5"
       simplify_individual_paths="false"
       simplify_just_coalesce="false" />
  </defs>
  <g
     inkscape:label="Layer 1"
     inkscape:groupmode="layer"
     id="layer1">
    <path
       id="path545"
       style="fill:#bdae93;fill-opacity:1"
       inkscape:transform-center-y="-8.8293469"
       d="m 16.397103,-7.4686498 c -0.566973,0.2303579 -0.942291,0.738937 -1.311056,1.2016312 -2.24643,2.818627 -4.089914,5.92442362 -5.9317171,9.0125306 C 6.28017,7.5645466 3.172407,12.338394 1.3357236,17.649081 1.20203,18.03565 0.98951858,18.425148 1.018026,18.833494 c 0.03217,0.460804 0.6013734,0.708889 1.0164199,0.508347 1.6857714,-0.814531 3.4325941,-1.492179 5.17567,-2.17145 2.8158451,-1.097325 5.6271751,-2.296665 8.5933601,-2.883489 0.769691,-0.152274 1.549209,0.04718 2.288783,0.275435 2.518512,0.777301 5.012826,1.634092 7.46817,2.593723 1.808547,0.706841 3.525648,1.650342 5.371997,2.251379 0.410436,0.133608 0.90206,-0.249839 0.835921,-0.687505 C 31.688089,18.18884 31.478142,17.691755 31.286269,17.194463 30.467535,15.072481 29.385024,13.068022 28.32404,11.061411 25.227576,5.2051476 22.043181,-0.65735212 17.992805,-5.9052194 c -0.429813,-0.556887 -0.848648,-1.1746361 -1.472674,-1.5086215 -0.03961,-0.021201 -0.08066,-0.039794 -0.123028,-0.054809 z"
       transform="matrix(1.3638248,0,0,2.304819,9.6372237,17.213886)"
       inkscape:path-effect="#path-effect550"
       inkscape:original-d="M 16.397103 -7.4686498 C 14.556132 -7.4686498 0.13459718 17.509235 1.0550829 19.103563 C 1.1291476 19.231847 1.3860967 19.349293 1.7926112 19.456933 C 4.6967205 17.965565 14.870211 14.184352 16.397103 14.184352 C 17.923996 14.184352 28.097486 17.965565 31.001596 19.456933 C 31.40811 19.349293 31.665059 19.231847 31.739124 19.103563 C 32.65961 17.509235 18.238075 -7.4686498 16.397103 -7.4686498 z " />
    <path
       id="path1955"
       style="fill:#665c54;fill-opacity:1"
       inkscape:transform-center-y="-8.8293469"
       d="M 16.397103 -7.4686498 L 16.397103 14.234349 C 16.970439 14.239614 17.543061 14.392661 18.092702 14.562297 C 20.611212 15.339597 23.10573 16.196586 25.561071 17.156216 C 27.369617 17.863057 29.086508 18.806746 30.932855 19.407783 C 31.343291 19.541391 31.833905 19.157352 31.767766 18.719686 C 31.687508 18.188593 31.478455 17.691641 31.286582 17.19435 C 30.467849 15.07237 29.384563 13.068258 28.32358 11.061649 C 25.227119 5.2053913 22.042828 -0.65731767 17.992456 -5.9051797 C 17.562643 -6.4620661 17.144289 -7.0795831 16.520263 -7.4135682 C 16.480654 -7.4347692 16.439471 -7.4536349 16.397103 -7.4686498 z "
       transform="matrix(1.3638248,0,0,2.304819,9.6372237,17.213886)" />
  </g>
</svg>
